<svg xmlns="http://www.w3.org/2000/svg" xmlns:xlink="http://www.w3.org/1999/xlink" width="626" zoomAndPan="magnify" viewBox="0 0 469.5 257.99999" height="344" preserveAspectRatio="xMidYMid meet" version="1.0"><defs><filter x="0%" y="0%" width="100%" height="100%" id="1926d00a7a"><feColorMatrix values="0 0 0 0 1 0 0 0 0 1 0 0 0 0 1 0 0 0 1 0" color-interpolation-filters="sRGB"/></filter><clipPath id="dad86e9167"><path d="M 0 0.136719 L 469 0.136719 L 469 257.863281 L 0 257.863281 Z M 0 0.136719 " clip-rule="nonzero"/></clipPath><clipPath id="4b036f94df"><path d="M 179 0.136719 L 469 0.136719 L 469 257.863281 L 179 257.863281 Z M 179 0.136719 " clip-rule="nonzero"/></clipPath><mask id="575a154b02"><g filter="url(#1926d00a7a)"><rect x="-46.95" width="563.4" fill="#000000" y="-25.799999" height="309.599987" fill-opacity="0.2"/></g></mask><clipPath id="c4861fc610"><path d="M 72 0.136719 L 290 0.136719 L 290 247 L 72 247 Z M 72 0.136719 " clip-rule="nonzero"/></clipPath><clipPath id="63918840f9"><path d="M -0.6875 96.113281 L 180.652344 -156.855469 L 442.761719 31.039062 L 261.425781 284.007812 Z M -0.6875 96.113281 " clip-rule="nonzero"/></clipPath><clipPath id="b7842ead30"><path d="M -0.6875 96.113281 L 180.652344 -156.855469 L 442.761719 31.039062 L 261.425781 284.007812 Z M -0.6875 96.113281 " clip-rule="nonzero"/></clipPath><clipPath id="e107804b79"><rect x="0" width="290" y="0" height="258"/></clipPath><clipPath id="6c89c107d1"><path d="M 414 0.136719 L 468 0.136719 L 468 47 L 414 47 Z M 414 0.136719 " clip-rule="nonzero"/></clipPath><clipPath id="2b5c71813c"><path d="M 401.816406 21.53125 L 432.082031 -27.648438 L 482.542969 3.402344 L 452.273438 52.585938 Z M 401.816406 21.53125 " clip-rule="nonzero"/></clipPath><clipPath id="1eda717552"><path d="M 401.816406 21.53125 L 432.082031 -27.648438 L 482.542969 3.402344 L 452.273438 52.585938 Z M 401.816406 21.53125 " clip-rule="nonzero"/></clipPath><clipPath id="de4ff4d6aa"><path d="M 0 188 L 49 188 L 49 253 L 0 253 Z M 0 188 " clip-rule="nonzero"/></clipPath><clipPath id="f77b2b933c"><path d="M 65.503906 234.488281 L 14.371094 265.875 L -18.195312 212.820312 L 32.941406 181.433594 Z M 65.503906 234.488281 " clip-rule="nonzero"/></clipPath><clipPath id="5159bdbe0a"><path d="M 65.503906 234.488281 L 14.371094 265.875 L -18.195312 212.820312 L 32.941406 181.433594 Z M 65.503906 234.488281 " clip-rule="nonzero"/></clipPath><clipPath id="f121fd04da"><path d="M 0 67 L 252 67 L 252 257.863281 L 0 257.863281 Z M 0 67 " clip-rule="nonzero"/></clipPath><mask id="0462efd780"><g filter="url(#1926d00a7a)"><rect x="-46.95" width="563.4" fill="#000000" y="-25.799999" height="309.599987" fill-opacity="0.2"/></g></mask><clipPath id="2ce9afb239"><path d="M 0 20 L 216 20 L 216 190.863281 L 0 190.863281 Z M 0 20 " clip-rule="nonzero"/></clipPath><clipPath id="1a4ec408e7"><path d="M 252.03125 83.289062 L 170.949219 325.054688 L -80.0625 240.871094 L 1.023438 -0.894531 Z M 252.03125 83.289062 " clip-rule="nonzero"/></clipPath><clipPath id="afcc7a1ba1"><path d="M 252.03125 83.289062 L 170.949219 325.054688 L -80.0625 240.871094 L 1.023438 -0.894531 Z M 252.03125 83.289062 " clip-rule="nonzero"/></clipPath><clipPath id="eb0ba8dd48"><rect x="0" width="252" y="0" height="191"/></clipPath><clipPath id="7796303b89"><path d="M 56.402344 232.335938 L 85.652344 232.335938 L 85.652344 257.863281 L 56.402344 257.863281 Z M 56.402344 232.335938 " clip-rule="nonzero"/></clipPath><clipPath id="5a11fea0ba"><path d="M 438.285156 58.613281 L 452.535156 58.613281 L 452.535156 72.863281 L 438.285156 72.863281 Z M 438.285156 58.613281 " clip-rule="nonzero"/></clipPath></defs><g clip-path="url(#dad86e9167)"><path fill="#ffffff" d="M 0 0.136719 L 469.5 0.136719 L 469.5 265.636719 L 0 265.636719 Z M 0 0.136719 " fill-opacity="1" fill-rule="nonzero"/><path fill="#ffffff" d="M 0 0.136719 L 469.5 0.136719 L 469.5 258.136719 L 0 258.136719 Z M 0 0.136719 " fill-opacity="1" fill-rule="nonzero"/><path fill="#292929" d="M 0 0.136719 L 469.5 0.136719 L 469.5 258.136719 L 0 258.136719 Z M 0 0.136719 " fill-opacity="1" fill-rule="nonzero"/></g><g clip-path="url(#4b036f94df)"><g mask="url(#575a154b02)"><g transform="matrix(1, 0, 0, 1, 179, 0.000000000000026895)"><g clip-path="url(#e107804b79)"><g clip-path="url(#c4861fc610)"><g clip-path="url(#63918840f9)"><g clip-path="url(#b7842ead30)"><path fill="#ffffff" d="M 303.296875 -64.335938 C 273.597656 -78.09375 240.261719 -80.027344 207.988281 -78.027344 C 179.515625 -76.242188 150.972656 -70.375 125.707031 -56.695312 C 113.449219 -50.101562 100.667969 -41.894531 91.894531 -30.980469 C 83.15625 -20.121094 77.222656 -7.085938 74.34375 6.546875 C 71.355469 20.34375 71.605469 35.03125 75.367188 48.589844 C 79.5625 63.96875 88.394531 77.195312 96.917969 90.519531 C 116.308594 120.753906 128.746094 154.722656 147.988281 185.167969 C 164.988281 212.101562 188.910156 236.464844 220.863281 244.308594 C 251.367188 251.742188 280.902344 239.296875 303.007812 218.191406 C 328.203125 193.996094 343.234375 161.082031 351.117188 127.410156 C 355.125 110.539062 357.410156 93.304688 358.945312 76.011719 C 360.421875 58.914062 361.777344 41.648438 361.539062 24.507812 C 361.332031 8.980469 358.867188 -6.269531 351.464844 -20.054688 C 344.457031 -33.167969 334.144531 -44.445312 322.125 -53.21875 C 316.140625 -57.589844 309.769531 -61.203125 303.296875 -64.335938 " fill-opacity="1" fill-rule="nonzero"/></g></g></g></g></g></g></g><g clip-path="url(#6c89c107d1)"><g clip-path="url(#2b5c71813c)"><g clip-path="url(#1eda717552)"><path fill="#ffffff" d="M 455.75 -12.269531 C 450.125 -14.398438 443.972656 -14.296875 438.0625 -13.480469 C 432.851562 -12.757812 427.675781 -11.28125 423.195312 -8.410156 C 421.023438 -7.023438 418.773438 -5.332031 417.292969 -3.199219 C 415.820312 -1.074219 414.886719 1.414062 414.523438 3.96875 C 414.140625 6.554688 414.363281 9.261719 415.21875 11.710938 C 416.175781 14.492188 417.960938 16.8125 419.6875 19.152344 C 423.621094 24.464844 426.316406 30.5625 430.222656 35.914062 C 433.675781 40.648438 438.367188 44.8125 444.335938 45.820312 C 450.035156 46.769531 455.3125 44.066406 459.121094 39.867188 C 463.457031 35.054688 465.824219 28.773438 466.863281 22.453125 C 467.398438 19.285156 467.609375 16.070312 467.679688 12.859375 C 467.746094 9.683594 467.785156 6.480469 467.53125 3.320312 C 467.308594 0.457031 466.667969 -2.320312 465.140625 -4.765625 C 463.695312 -7.085938 461.660156 -9.027344 459.34375 -10.480469 C 458.191406 -11.203125 456.976562 -11.78125 455.75 -12.269531 " fill-opacity="1" fill-rule="nonzero"/></g></g></g><g clip-path="url(#de4ff4d6aa)"><g clip-path="url(#f77b2b933c)"><g clip-path="url(#5159bdbe0a)"><path fill="#ffffff" d="M -0.523438 240.234375 C 3.726562 244.90625 9.511719 247.746094 15.398438 249.808594 C 20.59375 251.625 26.105469 252.722656 31.621094 252.183594 C 34.292969 251.929688 37.175781 251.429688 39.550781 250.144531 C 41.917969 248.867188 43.945312 246.996094 45.476562 244.789062 C 47.035156 242.558594 48.089844 239.929688 48.433594 237.238281 C 48.835938 234.1875 48.253906 231.171875 47.734375 228.164062 C 46.546875 221.335938 46.871094 214.367188 45.726562 207.511719 C 44.714844 201.445312 42.28125 195.324219 37.1875 191.535156 C 32.320312 187.925781 26.140625 187.925781 20.632812 190.019531 C 14.347656 192.433594 9.214844 197.160156 5.296875 202.558594 C 3.324219 205.257812 1.632812 208.148438 0.0664062 211.109375 C -1.472656 214.039062 -3.003906 217.007812 -4.242188 220.070312 C -5.363281 222.847656 -6.066406 225.742188 -5.78125 228.75 C -5.511719 231.605469 -4.523438 234.382812 -3.039062 236.84375 C -2.304688 238.070312 -1.441406 239.191406 -0.523438 240.234375 " fill-opacity="1" fill-rule="nonzero"/></g></g></g><g clip-path="url(#f121fd04da)"><g mask="url(#0462efd780)"><g transform="matrix(1, 0, 0, 1, 0, 67)"><g clip-path="url(#eb0ba8dd48)"><g clip-path="url(#2ce9afb239)"><g clip-path="url(#1a4ec408e7)"><g clip-path="url(#afcc7a1ba1)"><path fill="#ffffff" d="M 52.382812 282.058594 C 79.003906 285.699219 105.617188 279.199219 130.449219 269.875 C 152.347656 261.628906 173.316406 250.171875 189.828125 233.378906 C 197.847656 225.269531 205.886719 215.769531 210.132812 205.109375 C 214.359375 194.5 215.863281 182.863281 214.824219 171.488281 C 213.835938 159.964844 210.089844 148.519531 203.863281 138.800781 C 196.855469 127.761719 186.730469 119.523438 176.824219 111.132812 C 154.304688 92.109375 136.34375 68.488281 113.890625 49.265625 C 94.046875 32.253906 69.398438 18.917969 42.4375 20.457031 C 16.714844 21.964844 -3.441406 38.8125 -15.679688 60.660156 C -29.589844 85.671875 -33.425781 115.070312 -31.472656 143.34375 C -30.535156 157.523438 -28.164062 171.574219 -25.1875 185.492188 C -22.210938 199.242188 -19.101562 213.089844 -14.769531 226.460938 C -10.855469 238.574219 -5.234375 249.925781 3.898438 258.949219 C 12.570312 267.535156 23.378906 273.890625 34.929688 277.878906 C 40.679688 279.859375 46.550781 281.160156 52.382812 282.058594 " fill-opacity="1" fill-rule="nonzero"/></g></g></g></g></g></g></g><g clip-path="url(#7796303b89)"><path fill="#ffffff" d="M 71.027344 232.335938 C 62.953125 232.335938 56.402344 238.886719 56.402344 246.960938 C 56.402344 255.039062 62.953125 261.585938 71.027344 261.585938 C 79.105469 261.585938 85.652344 255.039062 85.652344 246.960938 C 85.652344 238.886719 79.105469 232.335938 71.027344 232.335938 " fill-opacity="1" fill-rule="nonzero"/></g><g clip-path="url(#5a11fea0ba)"><path fill="#ffffff" d="M 445.410156 58.613281 C 441.472656 58.613281 438.285156 61.800781 438.285156 65.738281 C 438.285156 69.671875 441.472656 72.863281 445.410156 72.863281 C 449.34375 72.863281 452.535156 69.671875 452.535156 65.738281 C 452.535156 61.800781 449.34375 58.613281 445.410156 58.613281 " fill-opacity="1" fill-rule="nonzero"/></g></svg>