<svg xmlns="http://www.w3.org/2000/svg" xmlns:xlink="http://www.w3.org/1999/xlink" width="1410" zoomAndPan="magnify" viewBox="0 0 1057.5 269.999989" height="360" preserveAspectRatio="xMidYMid meet" version="1.0"><defs><clipPath id="a6bd9a28ec"><path d="M 0 0.0625 L 1057 0.0625 L 1057 269.933594 L 0 269.933594 Z M 0 0.0625 " clip-rule="nonzero"/></clipPath><clipPath id="781b766550"><path d="M 937 0.0625 L 1057 0.0625 L 1057 152 L 937 152 Z M 937 0.0625 " clip-rule="nonzero"/></clipPath><clipPath id="4a7d25d7b5"><path d="M 0 0.0625 L 172 0.0625 L 172 103 L 0 103 Z M 0 0.0625 " clip-rule="nonzero"/></clipPath><clipPath id="94901f8922"><path d="M -48.570312 112.476562 L 6.523438 -104.902344 L 195.546875 -56.996094 L 140.457031 160.382812 Z M -48.570312 112.476562 " clip-rule="nonzero"/></clipPath><clipPath id="3737849c04"><path d="M -48.570312 112.476562 L 6.523438 -104.902344 L 195.546875 -56.996094 L 140.457031 160.382812 Z M -48.570312 112.476562 " clip-rule="nonzero"/></clipPath><clipPath id="f186da4dd3"><path d="M 0 96.003906 L 90 96.003906 L 90 255 L 0 255 Z M 0 96.003906 " clip-rule="nonzero"/></clipPath><clipPath id="c8d016f032"><path d="M 997 57.664062 L 1057 57.664062 L 1057 216.664062 L 997 216.664062 Z M 997 57.664062 " clip-rule="nonzero"/></clipPath><clipPath id="3f3f712bbc"><path d="M 1021 207 L 1057 207 L 1057 269.933594 L 1021 269.933594 Z M 1021 207 " clip-rule="nonzero"/></clipPath><clipPath id="baf44b5d5d"><path d="M 1032.117188 160.472656 L 1263.011719 301.871094 L 1140.023438 502.707031 L 909.128906 361.308594 Z M 1032.117188 160.472656 " clip-rule="nonzero"/></clipPath><clipPath id="b79ea99864"><path d="M 1032.117188 160.472656 L 1263.011719 301.871094 L 1140.023438 502.707031 L 909.128906 361.308594 Z M 1032.117188 160.472656 " clip-rule="nonzero"/></clipPath><clipPath id="c6d7b8cba9"><path d="M 0 227 L 216 227 L 216 269.933594 L 0 269.933594 Z M 0 227 " clip-rule="nonzero"/></clipPath><clipPath id="70513d6bfd"><path d="M 262.054688 368.28125 L 12.96875 474.402344 L -79.335938 257.746094 L 169.75 151.625 Z M 262.054688 368.28125 " clip-rule="nonzero"/></clipPath><clipPath id="8975a03495"><path d="M 262.054688 368.28125 L 12.96875 474.402344 L -79.335938 257.746094 L 169.75 151.625 Z M 262.054688 368.28125 " clip-rule="nonzero"/></clipPath></defs><g clip-path="url(#a6bd9a28ec)"><path fill="#ffffff" d="M 0 0.0625 L 1057.5 0.0625 L 1057.5 277.5625 L 0 277.5625 Z M 0 0.0625 " fill-opacity="1" fill-rule="nonzero"/><path fill="#ffffff" d="M 0 0.0625 L 1057.5 0.0625 L 1057.5 270.0625 L 0 270.0625 Z M 0 0.0625 " fill-opacity="1" fill-rule="nonzero"/><path fill="#4e4e4e" d="M 0 0.0625 L 1057.5 0.0625 L 1057.5 270.0625 L 0 270.0625 Z M 0 0.0625 " fill-opacity="1" fill-rule="nonzero"/></g><g clip-path="url(#781b766550)"><path fill="#000000" d="M 1105.515625 -32.421875 C 1141.640625 0.277344 1179.636719 134.945312 1102.550781 150.085938 C 1050.417969 160.347656 1061.636719 114.378906 1019.261719 57.464844 C 1005.214844 38.632812 909.242188 12.957031 946.328125 -39.304688 C 968.3125 -70.273438 1058.261719 -75.152344 1105.515625 -32.421875 Z M 1105.515625 -32.421875 " fill-opacity="1" fill-rule="nonzero"/></g><g clip-path="url(#4a7d25d7b5)"><g clip-path="url(#94901f8922)"><g clip-path="url(#3737849c04)"><path fill="#000000" d="M 25.703125 -36.558594 C 59.300781 -58.910156 175.121094 -62.023438 171.589844 2.949219 C 169.214844 46.894531 134.601562 28.535156 80.296875 50.980469 C 62.320312 58.429688 22.1875 130.257812 -12.214844 89.855469 C -32.597656 65.902344 -18.210938 -7.308594 25.703125 -36.558594 Z M 25.703125 -36.558594 " fill-opacity="1" fill-rule="nonzero"/></g></g></g><g clip-path="url(#f186da4dd3)"><path fill="#d1d1d1" d="M 14.25 96.003906 C 29.625 96.648438 43.929688 101.085938 57.222656 107.609375 C 67.742188 112.796875 74.839844 122.53125 81.246094 132.585938 C 86.425781 140.714844 88.292969 149.96875 88.773438 158.632812 C 89.523438 173.445312 91.175781 188.3125 84.289062 203.183594 C 77.9375 216.871094 67.847656 225.484375 55.996094 232.648438 C 40.195312 242.222656 23.164062 249.605469 4.960938 253.1875 C -4.167969 255.003906 -13.671875 255.003906 -23.015625 254.953125 C -24.296875 254.953125 -26.964844 253.667969 -29.046875 253.078125 C -33.796875 251.851562 -38.550781 250.726562 -43.140625 249.015625 C -45.863281 248 -48.265625 245.96875 -50.773438 244.414062 C -53.925781 242.492188 -57.394531 240.992188 -60.222656 238.640625 C -69.726562 230.777344 -74.15625 220.457031 -72.769531 208.210938 C -71.59375 197.78125 -68.339844 187.457031 -68.070312 177.03125 C -67.644531 160.769531 -61.238281 146.917969 -52.269531 134.40625 C -45.167969 124.5625 -36.574219 115.792969 -25.042969 109.964844 C -16.820312 105.792969 -9.242188 100.445312 -0.113281 98.359375 C 4.585938 97.34375 9.445312 96.808594 14.25 96.003906 Z M 14.25 96.003906 " fill-opacity="1" fill-rule="nonzero"/></g><g clip-path="url(#c8d016f032)"><path fill="#d1d1d1" d="M 1084.929688 57.664062 C 1100.304688 58.308594 1114.609375 62.746094 1127.902344 69.269531 C 1138.421875 74.457031 1145.519531 84.191406 1151.925781 94.246094 C 1157.105469 102.375 1158.972656 111.628906 1159.453125 120.292969 C 1160.203125 135.105469 1161.855469 149.972656 1154.96875 164.84375 C 1148.617188 178.535156 1138.527344 187.144531 1126.675781 194.308594 C 1110.875 203.882812 1093.84375 211.265625 1075.640625 214.847656 C 1066.511719 216.664062 1057.007812 216.664062 1047.664062 216.613281 C 1046.382812 216.613281 1043.714844 215.328125 1041.632812 214.738281 C 1036.882812 213.511719 1032.128906 212.386719 1027.539062 210.675781 C 1024.816406 209.660156 1022.414062 207.628906 1019.90625 206.078125 C 1016.753906 204.152344 1013.285156 202.652344 1010.457031 200.300781 C 1000.953125 192.4375 996.523438 182.117188 997.910156 169.871094 C 999.085938 159.441406 1002.339844 149.117188 1002.609375 138.691406 C 1003.035156 122.429688 1009.441406 108.578125 1018.410156 96.066406 C 1025.511719 86.222656 1034.105469 77.453125 1045.636719 71.625 C 1053.859375 67.453125 1061.4375 62.105469 1070.566406 60.019531 C 1075.265625 59.003906 1080.125 58.46875 1084.929688 57.664062 Z M 1084.929688 57.664062 " fill-opacity="1" fill-rule="nonzero"/></g><g clip-path="url(#3f3f712bbc)"><g clip-path="url(#baf44b5d5d)"><g clip-path="url(#b79ea99864)"><path fill="#000000" d="M 1177.335938 299.511719 C 1191.066406 346.261719 1153.136719 480.949219 1079.492188 453.605469 C 1029.671875 435.128906 1063.25 401.785156 1056.835938 331.121094 C 1054.691406 307.71875 986.257812 235.703125 1045.175781 210.503906 C 1080.09375 195.578125 1159.351562 238.390625 1177.335938 299.511719 Z M 1177.335938 299.511719 " fill-opacity="1" fill-rule="nonzero"/></g></g></g><g clip-path="url(#c6d7b8cba9)"><g clip-path="url(#70513d6bfd)"><g clip-path="url(#8975a03495)"><path fill="#000000" d="M 64.574219 405.96875 C 18.523438 390.046875 -69.214844 281.046875 -4.230469 236.902344 C 39.710938 207.027344 47.40625 253.714844 108.695312 289.464844 C 129.003906 301.289062 227.359375 287.292969 213.726562 349.90625 C 205.636719 387.011719 124.796875 426.757812 64.574219 405.96875 Z M 64.574219 405.96875 " fill-opacity="1" fill-rule="nonzero"/></g></g></g></svg>