<svg xmlns="http://www.w3.org/2000/svg" xmlns:xlink="http://www.w3.org/1999/xlink" width="1410" zoomAndPan="magnify" viewBox="0 0 1057.5 135.000003" height="180" preserveAspectRatio="xMidYMid meet" version="1.0"><defs><clipPath id="d7eb49abfa"><path d="M 3.640625 0 L 1053.363281 0 L 1053.363281 134.007812 L 3.640625 134.007812 Z M 3.640625 0 " clip-rule="nonzero"/></clipPath><clipPath id="2fdee385f0"><path d="M 17.046875 13.40625 L 104.9375 13.40625 L 104.9375 120.664062 L 17.046875 120.664062 Z M 17.046875 13.40625 " clip-rule="nonzero"/></clipPath><clipPath id="148020872f"><path d="M 953 13.40625 L 1040.785156 13.40625 L 1040.785156 120.664062 L 953 120.664062 Z M 953 13.40625 " clip-rule="nonzero"/></clipPath></defs><g clip-path="url(#d7eb49abfa)"><path fill="#ffffff" d="M 3.640625 0 L 1053.859375 0 L 1053.859375 141.519531 L 3.640625 141.519531 Z M 3.640625 0 " fill-opacity="1" fill-rule="nonzero"/><path fill="#ffffff" d="M 3.640625 0 L 1053.859375 0 L 1053.859375 134.070312 L 3.640625 134.070312 Z M 3.640625 0 " fill-opacity="1" fill-rule="nonzero"/><path fill="#232533" d="M 3.640625 0 L 1053.859375 0 L 1053.859375 134.070312 L 3.640625 134.070312 Z M 3.640625 0 " fill-opacity="1" fill-rule="nonzero"/></g><g clip-path="url(#2fdee385f0)"><path fill="#ffffff" d="M 33.523438 23.640625 L 24.40625 13.40625 L 17.15625 13.40625 L 17.15625 36.828125 L 25.011719 36.828125 L 25.011719 26.703125 L 34.128906 36.828125 L 41.324219 36.828125 L 41.324219 13.40625 L 33.523438 13.40625 Z M 34.460938 14.390625 L 40.335938 14.390625 L 40.335938 35.84375 L 34.515625 35.84375 L 24.023438 24.1875 L 24.023438 35.84375 L 18.144531 35.84375 L 18.144531 14.390625 L 23.96875 14.390625 L 34.460938 26.210938 Z M 53.851562 28.019531 L 64.726562 28.019531 L 64.726562 21.890625 L 53.851562 21.890625 L 53.851562 19.753906 L 66.539062 19.753906 L 66.539062 13.40625 L 45.390625 13.40625 L 45.390625 36.828125 L 66.761719 36.828125 L 66.761719 30.425781 L 53.851562 30.425781 Z M 65.828125 31.410156 L 65.828125 35.84375 L 46.378906 35.84375 L 46.378906 14.390625 L 65.605469 14.390625 L 65.605469 18.824219 L 52.917969 18.824219 L 52.917969 22.875 L 63.792969 22.875 L 63.792969 27.085938 L 52.917969 27.085938 L 52.917969 31.464844 L 65.828125 31.464844 Z M 84.722656 36.828125 L 87.414062 24.625 L 90.105469 36.828125 L 99.117188 36.828125 L 104.828125 13.40625 L 96.316406 13.40625 L 94.117188 24.570312 L 91.644531 13.40625 L 83.460938 13.40625 L 81.152344 24.570312 L 78.789062 13.40625 L 70 13.40625 L 75.714844 36.828125 Z M 78.023438 14.390625 L 80.714844 27.085938 L 81.648438 27.085938 L 84.285156 14.390625 L 90.875 14.390625 L 93.675781 27.085938 L 94.613281 27.085938 L 97.136719 14.390625 L 103.566406 14.390625 L 98.347656 35.84375 L 90.875 35.84375 L 87.855469 22.164062 L 86.921875 22.164062 L 83.898438 35.84375 L 76.429688 35.84375 L 71.210938 14.390625 Z M 33.523438 52.261719 L 24.40625 41.972656 L 17.15625 41.972656 L 17.15625 65.394531 L 25.011719 65.394531 L 25.011719 55.269531 L 34.128906 65.394531 L 41.324219 65.394531 L 41.324219 41.972656 L 33.523438 41.972656 Z M 34.460938 42.957031 L 40.335938 42.957031 L 40.335938 64.410156 L 34.515625 64.410156 L 24.023438 52.753906 L 24.023438 64.410156 L 18.144531 64.410156 L 18.144531 42.957031 L 23.96875 42.957031 L 34.460938 54.777344 Z M 53.851562 56.582031 L 64.726562 56.582031 L 64.726562 50.453125 L 53.851562 50.453125 L 53.851562 48.320312 L 66.539062 48.320312 L 66.539062 41.972656 L 45.390625 41.972656 L 45.390625 65.394531 L 66.761719 65.394531 L 66.761719 59.046875 L 53.851562 59.046875 Z M 65.828125 59.976562 L 65.828125 64.410156 L 46.378906 64.410156 L 46.378906 42.957031 L 65.605469 42.957031 L 65.605469 47.390625 L 52.917969 47.390625 L 52.917969 51.4375 L 63.792969 51.4375 L 63.792969 55.652344 L 52.917969 55.652344 L 52.917969 60.03125 L 65.828125 60.03125 Z M 94.117188 53.191406 L 91.644531 42.027344 L 83.460938 42.027344 L 81.152344 53.191406 L 78.789062 42.027344 L 70 42.027344 L 75.660156 65.394531 L 84.722656 65.394531 L 87.414062 53.191406 L 90.105469 65.394531 L 99.117188 65.394531 L 104.828125 41.972656 L 96.316406 41.972656 Z M 103.566406 42.957031 L 98.347656 64.410156 L 90.875 64.410156 L 87.855469 50.726562 L 86.921875 50.726562 L 83.898438 64.410156 L 76.429688 64.410156 L 71.210938 42.957031 L 78.023438 42.957031 L 80.714844 55.652344 L 81.648438 55.652344 L 84.285156 42.957031 L 90.875 42.957031 L 93.675781 55.652344 L 94.613281 55.652344 L 97.136719 42.957031 Z M 33.523438 80.824219 L 24.40625 70.59375 L 17.15625 70.59375 L 17.15625 94.011719 L 25.011719 94.011719 L 25.011719 83.890625 L 34.128906 94.011719 L 41.324219 94.011719 L 41.324219 70.59375 L 33.523438 70.59375 Z M 34.460938 71.523438 L 40.335938 71.523438 L 40.335938 92.972656 L 34.515625 92.972656 L 24.023438 81.316406 L 24.023438 92.972656 L 18.144531 92.972656 L 18.144531 71.523438 L 23.96875 71.523438 L 34.460938 83.34375 Z M 53.851562 85.148438 L 64.726562 85.148438 L 64.726562 79.019531 L 53.851562 79.019531 L 53.851562 76.886719 L 66.539062 76.886719 L 66.539062 70.539062 L 45.390625 70.539062 L 45.390625 93.957031 L 66.761719 93.957031 L 66.761719 87.609375 L 53.851562 87.609375 Z M 65.828125 88.597656 L 65.828125 93.027344 L 46.378906 93.027344 L 46.378906 71.578125 L 65.605469 71.578125 L 65.605469 76.011719 L 52.917969 76.011719 L 52.917969 80.058594 L 63.792969 80.058594 L 63.792969 84.273438 L 52.917969 84.273438 L 52.917969 88.652344 L 65.828125 88.652344 Z M 94.117188 81.753906 L 91.644531 70.59375 L 83.460938 70.59375 L 81.152344 81.753906 L 78.789062 70.59375 L 70 70.59375 L 75.714844 94.011719 L 84.722656 94.011719 L 87.414062 81.808594 L 90.105469 94.011719 L 99.117188 94.011719 L 104.828125 70.59375 L 96.316406 70.59375 Z M 103.566406 71.523438 L 98.347656 92.972656 L 90.875 92.972656 L 87.855469 79.292969 L 86.921875 79.292969 L 83.898438 92.972656 L 76.429688 92.972656 L 71.210938 71.523438 L 78.023438 71.523438 L 80.714844 84.21875 L 81.648438 84.21875 L 84.285156 71.523438 L 90.875 71.523438 L 93.675781 84.21875 L 94.613281 84.21875 L 97.136719 71.523438 Z M 33.964844 98.226562 L 40.832031 98.226562 L 40.832031 120.664062 L 34.347656 120.664062 L 24.515625 109.773438 L 24.515625 120.664062 L 17.648438 120.664062 L 17.648438 98.226562 L 24.1875 98.226562 L 34.019531 109.28125 L 34.019531 98.226562 Z M 53.410156 115.300781 L 66.320312 115.300781 L 66.320312 120.664062 L 45.886719 120.664062 L 45.886719 98.226562 L 66.046875 98.226562 L 66.046875 103.589844 L 53.410156 103.589844 L 53.410156 106.65625 L 64.289062 106.65625 L 64.289062 111.796875 L 53.410156 111.796875 Z M 96.699219 98.226562 L 104.171875 98.226562 L 98.675781 120.664062 L 90.4375 120.664062 L 87.414062 106.984375 L 87.304688 106.984375 L 84.285156 120.664062 L 76.042969 120.664062 L 70.605469 98.226562 L 78.40625 98.226562 L 81.097656 110.921875 L 81.207031 110.921875 L 83.84375 98.226562 L 91.207031 98.226562 L 94.007812 110.921875 L 94.171875 110.921875 Z M 96.699219 98.226562 " fill-opacity="1" fill-rule="nonzero"/></g><g clip-path="url(#148020872f)"><path fill="#ffffff" d="M 969.371094 23.640625 L 960.253906 13.40625 L 953 13.40625 L 953 36.828125 L 960.855469 36.828125 L 960.855469 26.703125 L 969.976562 36.828125 L 977.171875 36.828125 L 977.171875 13.40625 L 969.371094 13.40625 Z M 970.304688 14.390625 L 976.183594 14.390625 L 976.183594 35.84375 L 970.359375 35.84375 L 959.867188 24.1875 L 959.867188 35.84375 L 953.988281 35.84375 L 953.988281 14.390625 L 959.8125 14.390625 L 970.304688 26.210938 Z M 989.695312 28.019531 L 1000.574219 28.019531 L 1000.574219 21.890625 L 989.695312 21.890625 L 989.695312 19.753906 L 1002.386719 19.753906 L 1002.386719 13.40625 L 981.238281 13.40625 L 981.238281 36.828125 L 1002.605469 36.828125 L 1002.605469 30.425781 L 989.695312 30.425781 Z M 1001.671875 31.410156 L 1001.671875 35.84375 L 982.226562 35.84375 L 982.226562 14.390625 L 1001.453125 14.390625 L 1001.453125 18.824219 L 988.761719 18.824219 L 988.761719 22.875 L 999.640625 22.875 L 999.640625 27.085938 L 988.761719 27.085938 L 988.761719 31.464844 L 1001.671875 31.464844 Z M 1020.570312 36.828125 L 1023.261719 24.625 L 1025.953125 36.828125 L 1034.960938 36.828125 L 1040.675781 13.40625 L 1032.160156 13.40625 L 1029.964844 24.570312 L 1027.492188 13.40625 L 1019.304688 13.40625 L 1017 24.570312 L 1014.636719 13.40625 L 1005.847656 13.40625 L 1011.558594 36.828125 Z M 1013.867188 14.390625 L 1016.558594 27.085938 L 1017.492188 27.085938 L 1020.128906 14.390625 L 1026.722656 14.390625 L 1029.523438 27.085938 L 1030.457031 27.085938 L 1032.984375 14.390625 L 1039.410156 14.390625 L 1034.191406 35.84375 L 1026.722656 35.84375 L 1023.699219 22.164062 L 1022.765625 22.164062 L 1019.746094 35.84375 L 1012.273438 35.84375 L 1007.054688 14.390625 Z M 969.371094 52.261719 L 960.253906 41.972656 L 953 41.972656 L 953 65.394531 L 960.855469 65.394531 L 960.855469 55.269531 L 969.976562 65.394531 L 977.171875 65.394531 L 977.171875 41.972656 L 969.371094 41.972656 Z M 970.304688 42.957031 L 976.183594 42.957031 L 976.183594 64.410156 L 970.359375 64.410156 L 959.867188 52.753906 L 959.867188 64.410156 L 953.988281 64.410156 L 953.988281 42.957031 L 959.8125 42.957031 L 970.304688 54.777344 Z M 989.695312 56.582031 L 1000.574219 56.582031 L 1000.574219 50.453125 L 989.695312 50.453125 L 989.695312 48.320312 L 1002.386719 48.320312 L 1002.386719 41.972656 L 981.238281 41.972656 L 981.238281 65.394531 L 1002.605469 65.394531 L 1002.605469 59.046875 L 989.695312 59.046875 Z M 1001.671875 59.976562 L 1001.671875 64.410156 L 982.226562 64.410156 L 982.226562 42.957031 L 1001.453125 42.957031 L 1001.453125 47.390625 L 988.761719 47.390625 L 988.761719 51.4375 L 999.640625 51.4375 L 999.640625 55.652344 L 988.761719 55.652344 L 988.761719 60.03125 L 1001.671875 60.03125 Z M 1029.964844 53.191406 L 1027.492188 42.027344 L 1019.304688 42.027344 L 1017 53.191406 L 1014.636719 42.027344 L 1005.847656 42.027344 L 1011.503906 65.394531 L 1020.570312 65.394531 L 1023.261719 53.191406 L 1025.953125 65.394531 L 1034.960938 65.394531 L 1040.675781 41.972656 L 1032.160156 41.972656 Z M 1039.410156 42.957031 L 1034.191406 64.410156 L 1026.722656 64.410156 L 1023.699219 50.726562 L 1022.765625 50.726562 L 1019.746094 64.410156 L 1012.273438 64.410156 L 1007.054688 42.957031 L 1013.867188 42.957031 L 1016.558594 55.652344 L 1017.492188 55.652344 L 1020.128906 42.957031 L 1026.722656 42.957031 L 1029.523438 55.652344 L 1030.457031 55.652344 L 1032.984375 42.957031 Z M 969.371094 80.824219 L 960.253906 70.59375 L 953 70.59375 L 953 94.011719 L 960.855469 94.011719 L 960.855469 83.890625 L 969.976562 94.011719 L 977.171875 94.011719 L 977.171875 70.59375 L 969.371094 70.59375 Z M 970.304688 71.523438 L 976.183594 71.523438 L 976.183594 92.972656 L 970.359375 92.972656 L 959.867188 81.316406 L 959.867188 92.972656 L 953.988281 92.972656 L 953.988281 71.523438 L 959.8125 71.523438 L 970.304688 83.34375 Z M 989.695312 85.148438 L 1000.574219 85.148438 L 1000.574219 79.019531 L 989.695312 79.019531 L 989.695312 76.886719 L 1002.386719 76.886719 L 1002.386719 70.539062 L 981.238281 70.539062 L 981.238281 93.957031 L 1002.605469 93.957031 L 1002.605469 87.609375 L 989.695312 87.609375 Z M 1001.671875 88.597656 L 1001.671875 93.027344 L 982.226562 93.027344 L 982.226562 71.578125 L 1001.453125 71.578125 L 1001.453125 76.011719 L 988.761719 76.011719 L 988.761719 80.058594 L 999.640625 80.058594 L 999.640625 84.273438 L 988.761719 84.273438 L 988.761719 88.652344 L 1001.671875 88.652344 Z M 1029.964844 81.753906 L 1027.492188 70.59375 L 1019.304688 70.59375 L 1017 81.753906 L 1014.636719 70.59375 L 1005.847656 70.59375 L 1011.558594 94.011719 L 1020.570312 94.011719 L 1023.261719 81.808594 L 1025.953125 94.011719 L 1034.960938 94.011719 L 1040.675781 70.59375 L 1032.160156 70.59375 Z M 1039.410156 71.523438 L 1034.191406 92.972656 L 1026.722656 92.972656 L 1023.699219 79.292969 L 1022.765625 79.292969 L 1019.746094 92.972656 L 1012.273438 92.972656 L 1007.054688 71.523438 L 1013.867188 71.523438 L 1016.558594 84.21875 L 1017.492188 84.21875 L 1020.128906 71.523438 L 1026.722656 71.523438 L 1029.523438 84.21875 L 1030.457031 84.21875 L 1032.984375 71.523438 Z M 969.8125 98.226562 L 976.675781 98.226562 L 976.675781 120.664062 L 970.195312 120.664062 L 960.363281 109.773438 L 960.363281 120.664062 L 953.496094 120.664062 L 953.496094 98.226562 L 960.03125 98.226562 L 969.867188 109.28125 L 969.867188 98.226562 Z M 989.257812 115.300781 L 1002.167969 115.300781 L 1002.167969 120.664062 L 981.730469 120.664062 L 981.730469 98.226562 L 1001.890625 98.226562 L 1001.890625 103.589844 L 989.257812 103.589844 L 989.257812 106.65625 L 1000.132812 106.65625 L 1000.132812 111.796875 L 989.257812 111.796875 Z M 1032.546875 98.226562 L 1040.015625 98.226562 L 1034.523438 120.664062 L 1026.28125 120.664062 L 1023.261719 106.984375 L 1023.152344 106.984375 L 1020.128906 120.664062 L 1011.890625 120.664062 L 1006.453125 98.226562 L 1014.253906 98.226562 L 1016.945312 110.921875 L 1017.054688 110.921875 L 1019.691406 98.226562 L 1027.050781 98.226562 L 1029.851562 110.921875 L 1030.019531 110.921875 Z M 1032.546875 98.226562 " fill-opacity="1" fill-rule="nonzero"/></g></svg>